<svg id="Layer_1" data-name="Layer 1" xmlns="http://www.w3.org/2000/svg" viewBox="0 0 319.54 318.96">
  <defs>
    <style>
      .cls-1 {
        fill: #faecca;
      }
    </style>
  </defs>
  <g>
    <path class="cls-1" d="M225.57,100.58a.23.23,0,0,0,0,.45C225.83,101,225.83,100.58,225.57,100.58Z"/>
    <path class="cls-1" d="M256.82,55.78a.23.23,0,0,0,0,.45C257.08,56.23,257.08,55.78,256.82,55.78Z"/>
    <path class="cls-1" d="M242.85,20.74c-.26,0-.26.45,0,.45A.23.23,0,0,0,242.85,20.74Z"/>
    <path class="cls-1" d="M294.72,158a.23.23,0,0,0,0,.45C295,158.48,295,158,294.72,158Z"/>
    <path class="cls-1" d="M315.66,72.76c-.26,0-.26.45,0,.45A.23.23,0,0,0,315.66,72.76Z"/>
    <path class="cls-1" d="M286.74,119.73a.23.23,0,0,0,0,.45C287,120.18,287,119.73,286.74,119.73Z"/>
    <path class="cls-1" d="M317,.14c-.26,0-.26.45,0,.45A.23.23,0,0,0,317,.14Z"/>
    <path class="cls-1" d="M163.73,17.12a.23.23,0,0,0,0,.45C164,17.57,164,17.12,163.73,17.12Z"/>
    <path class="cls-1" d="M56.68,8.45a.23.23,0,0,0,0,.45C56.94,8.9,56.94,8.45,56.68,8.45Z"/>
    <path class="cls-1" d="M100.56,20.74a.23.23,0,0,0,0,.45A.23.23,0,0,0,100.56,20.74Z"/>
    <path class="cls-1" d="M166.06,83.09a.23.23,0,0,0,0,.45C166.32,83.54,166.32,83.09,166.06,83.09Z"/>
    <path class="cls-1" d="M99.48,177.9a.23.23,0,0,0,0,.45C99.74,178.35,99.74,177.9,99.48,177.9Z"/>
    <path class="cls-1" d="M127.73,134.16a.23.23,0,0,0,0,.45A.23.23,0,0,0,127.73,134.16Z"/>
    <path class="cls-1" d="M107.78,79.46c-.26,0-.26.44,0,.44A.22.22,0,0,0,107.78,79.46Z"/>
    <path class="cls-1" d="M235.36,200.45c-.26,0-.26.45,0,.45A.23.23,0,0,0,235.36,200.45Z"/>
    <path class="cls-1" d="M280.09,210.41a.23.23,0,0,0,0,.45A.23.23,0,0,0,280.09,210.41Z"/>
    <path class="cls-1" d="M241,156.73a.23.23,0,0,0,0,.45C241.28,157.18,241.28,156.73,241,156.73Z"/>
    <path class="cls-1" d="M53.63,267.83a.22.22,0,0,0,0,.44C53.89,268.27,53.89,267.83,53.63,267.83Z"/>
    <path class="cls-1" d="M.2,131.66a.23.23,0,0,0,0,.45A.23.23,0,0,0,.2,131.66Z"/>
    <path class="cls-1" d="M7.83,136.5c-.26,0-.26.44,0,.44A.22.22,0,0,0,7.83,136.5Z"/>
    <path class="cls-1" d="M7.83,125.44c-.26,0-.26.45,0,.45A.23.23,0,0,0,7.83,125.44Z"/>
    <path class="cls-1" d="M15.46,25.9c-.26,0-.26.45,0,.45A.23.23,0,0,0,15.46,25.9Z"/>
    <path class="cls-1" d="M125.79,200.09a.23.23,0,0,0,0,.45A.23.23,0,0,0,125.79,200.09Z"/>
    <path class="cls-1" d="M41.54,196.63c-.26,0-.26.45,0,.45A.23.23,0,0,0,41.54,196.63Z"/>
    <path class="cls-1" d="M46,131a.23.23,0,0,0,0,.45C46.26,131.42,46.26,131,46,131Z"/>
    <path class="cls-1" d="M236.81,298.93c-.26,0-.26.45,0,.45A.23.23,0,0,0,236.81,298.93Z"/>
    <path class="cls-1" d="M285.15,280.27c-.26,0-.26.45,0,.45A.23.23,0,0,0,285.15,280.27Z"/>
    <path class="cls-1" d="M219,230.5c-.26,0-.26.45,0,.45A.23.23,0,0,0,219,230.5Z"/>
    <path class="cls-1" d="M189.74,310.68c-.26,0-.26.45,0,.45A.23.23,0,0,0,189.74,310.68Z"/>
    <path class="cls-1" d="M107.69,318.28c-.26,0-.26.45,0,.45A.23.23,0,0,0,107.69,318.28Z"/>
    <path class="cls-1" d="M26.91,310.68c-.26,0-.26.45,0,.45A.23.23,0,0,0,26.91,310.68Z"/>
    <path class="cls-1" d="M26.91,245c-.26,0-.26.44,0,.44A.22.22,0,0,0,26.91,245Z"/>
    <path class="cls-1" d="M212.64,125.9c-.53,0-.53.9,0,.9S213.17,125.9,212.64,125.9Z"/>
    <path class="cls-1" d="M215.19,49.87a.45.45,0,0,0,0,.9C215.72,50.77,215.72,49.87,215.19,49.87Z"/>
    <path class="cls-1" d="M295.33,92.73c-.53,0-.53.89,0,.89S295.86,92.73,295.33,92.73Z"/>
    <path class="cls-1" d="M197.38,263.56c-.53,0-.54.9,0,.9S197.91,263.56,197.38,263.56Z"/>
    <path class="cls-1" d="M164.94,236.5c-.53,0-.53.89,0,.89S165.47,236.5,164.94,236.5Z"/>
    <path class="cls-1" d="M82.25,293.87c-.53,0-.53.89,0,.89S82.78,293.87,82.25,293.87Z"/>
    <path class="cls-1" d="M128.05,17.38c-.53,0-.54.9,0,.9S128.58,17.38,128.05,17.38Z"/>
    <path class="cls-1" d="M24.37,45c-.53,0-.53.9,0,.9S24.9,45,24.37,45Z"/>
    <path class="cls-1" d="M76.53,152.17a.45.45,0,0,0,0,.9C77.06,153.07,77.06,152.17,76.53,152.17Z"/>
    <path class="cls-1" d="M21.19,170.83c-.53,0-.53.9,0,.9S21.72,170.83,21.19,170.83Z"/>
    <path class="cls-1" d="M61.9,228.2c-.53,0-.54.9,0,.9S62.43,228.2,61.9,228.2Z"/>
    <path class="cls-1" d="M12.28,266.22c-.53,0-.53.9,0,.9A.45.45,0,0,0,12.28,266.22Z"/>
    <path class="cls-1" d="M260.35,318.06a.45.45,0,0,0,0,.9C260.88,319,260.88,318.06,260.35,318.06Z"/>
    <path class="cls-1" d="M253.35,261.38c-.53,0-.53.9,0,.9S253.88,261.38,253.35,261.38Z"/>
    <path class="cls-1" d="M310.59,235.11c-.53,0-.53.9,0,.9A.45.45,0,0,0,310.59,235.11Z"/>
    <path class="cls-1" d="M219,7.48c-.79,0-.8,1.35,0,1.35S219.8,7.48,219,7.48Z"/>
    <path class="cls-1" d="M178.93,37.2c-.8,0-.8,1.35,0,1.35S179.73,37.2,178.93,37.2Z"/>
    <path class="cls-1" d="M297.87,10.25c-.79,0-.8,1.34,0,1.34S298.67,10.25,297.87,10.25Z"/>
    <path class="cls-1" d="M289,59.32c-.8,0-.8,1.35,0,1.35S289.77,59.32,289,59.32Z"/>
    <path class="cls-1" d="M166.85,257c-.8,0-.8,1.35,0,1.35S167.64,257,166.85,257Z"/>
    <path class="cls-1" d="M128.05,244.57c-.8,0-.8,1.34,0,1.34S128.85,244.57,128.05,244.57Z"/>
    <path class="cls-1" d="M310.59,269.45c-.79,0-.79,1.35,0,1.35S311.39,269.45,310.59,269.45Z"/>
    <path class="cls-1" d="M304.87,311.61c-.8,0-.8,1.35,0,1.35S305.67,311.61,304.87,311.61Z"/>
    <path class="cls-1" d="M12.92,88.35c-.8,0-.8,1.35,0,1.35S13.72,88.35,12.92,88.35Z"/>
    <path class="cls-1" d="M42.82,29.6c-.8,0-.8,1.35,0,1.35S43.61,29.6,42.82,29.6Z"/>
    <path class="cls-1" d="M87.34,263.92c-.8,0-.8,1.35,0,1.35S88.14,263.92,87.34,263.92Z"/>
    <path class="cls-1" d="M76.53,313.69c-.8,0-.8,1.34,0,1.34S77.32,313.69,76.53,313.69Z"/>
    <path class="cls-1" d="M201.29,76.84a.22.22,0,0,0,0,.44C201.55,77.28,201.55,76.84,201.29,76.84Z"/>
    <path class="cls-1" d="M260,1.15a.23.23,0,0,0,0,.45C260.28,1.6,260.28,1.15,260,1.15Z"/>
    <path class="cls-1" d="M263.84.2a.22.22,0,0,0,0,.44A.22.22,0,0,0,263.84.2Z"/>
    <path class="cls-1" d="M263,6.91a.23.23,0,0,0,0,.45C263.22,7.36,263.22,6.91,263,6.91Z"/>
    <path class="cls-1" d="M266.19,5c-.26,0-.26.45,0,.45A.23.23,0,0,0,266.19,5Z"/>
    <path class="cls-1" d="M269.13,13.3c-.26,0-.26.45,0,.45A.23.23,0,0,0,269.13,13.3Z"/>
    <path class="cls-1" d="M276.88,3.3c-.26,0-.26.44,0,.44A.22.22,0,0,0,276.88,3.3Z"/>
    <path class="cls-1" d="M269.3,239.78a.23.23,0,0,0,0,.45C269.56,240.23,269.57,239.78,269.3,239.78Z"/>
    <path class="cls-1" d="M280.67,229.89c-.26,0-.26.45,0,.45A.23.23,0,0,0,280.67,229.89Z"/>
    <path class="cls-1" d="M283,235.66a.23.23,0,0,0,0,.45C283.21,236.11,283.21,235.66,283,235.66Z"/>
    <path class="cls-1" d="M280.67,240.61c-.26,0-.26.45,0,.45A.23.23,0,0,0,280.67,240.61Z"/>
    <path class="cls-1" d="M273.09,249.67a.23.23,0,0,0,0,.45A.23.23,0,0,0,273.09,249.67Z"/>
    <path class="cls-1" d="M273.09,231.54a.23.23,0,0,0,0,.45A.23.23,0,0,0,273.09,231.54Z"/>
    <path class="cls-1" d="M297.35,215.06c-.26,0-.26.45,0,.45A.23.23,0,0,0,297.35,215.06Z"/>
    <path class="cls-1" d="M87.72,214.24c-.26,0-.26.45,0,.45A.23.23,0,0,0,87.72,214.24Z"/>
    <path class="cls-1" d="M99.1,222.48a.23.23,0,0,0,0,.45C99.36,222.93,99.36,222.48,99.1,222.48Z"/>
    <path class="cls-1" d="M126.85,207.65a.23.23,0,0,0,0,.45C127.11,208.1,127.11,207.65,126.85,207.65Z"/>
    <path class="cls-1" d="M89.24,192a.23.23,0,0,0,0,.45A.23.23,0,0,0,89.24,192Z"/>
    <path class="cls-1" d="M96.82,215.06c-.26,0-.26.45,0,.45A.23.23,0,0,0,96.82,215.06Z"/>
    <path class="cls-1" d="M110.07,232.37a.23.23,0,0,0,0,.45C110.33,232.82,110.33,232.37,110.07,232.37Z"/>
    <path class="cls-1" d="M222.29,300.76a.23.23,0,0,0,0,.45C222.55,301.21,222.55,300.76,222.29,300.76Z"/>
    <path class="cls-1" d="M213.19,318.06a.23.23,0,0,0,0,.45C213.45,318.51,213.46,318.06,213.19,318.06Z"/>
    <path class="cls-1" d="M223.05,263a.23.23,0,0,0,0,.45C223.31,263.41,223.31,263,223.05,263Z"/>
    <path class="cls-1" d="M184.58,180.43a.23.23,0,0,0,0-.45C184.32,180,184.32,180.43,184.58,180.43Z"/>
    <path class="cls-1" d="M231.65,168.68a.23.23,0,0,0,0-.45A.23.23,0,0,0,231.65,168.68Z"/>
    <path class="cls-1" d="M224,194.48c.53,0,.53-.9,0-.9S223.48,194.48,224,194.48Z"/>
    <path class="cls-1" d="M199.11,178.6c.26,0,.26-.44,0-.44A.22.22,0,0,0,199.11,178.6Z"/>
    <path class="cls-1" d="M208.2,161.3a.23.23,0,0,0,0-.45C207.94,160.85,207.94,161.3,208.2,161.3Z"/>
    <path class="cls-1" d="M198.35,195.08c.26,0,.26-.44,0-.44A.22.22,0,0,0,198.35,195.08Z"/>
    <path class="cls-1" d="M121.44,305.7c-.26,0-.27.45,0,.45A.23.23,0,0,0,121.44,305.7Z"/>
    <path class="cls-1" d="M253.38,1.65a.23.23,0,0,0,0,.45C253.64,2.1,253.64,1.65,253.38,1.65Z"/>
    <path class="cls-1" d="M236.69,14.83c-.26,0-.26.45,0,.45A.23.23,0,0,0,236.69,14.83Z"/>
    <path class="cls-1" d="M254.89,30.49c-.26,0-.26.45,0,.45A.23.23,0,0,0,254.89,30.49Z"/>
    <path class="cls-1" d="M255.65,14a.23.23,0,0,0,0,.45A.23.23,0,0,0,255.65,14Z"/>
    <path class="cls-1" d="M284.46,20.6c-.26,0-.26.45,0,.45A.23.23,0,0,0,284.46,20.6Z"/>
    <path class="cls-1" d="M295.08,4.12a.23.23,0,0,0,0,.45A.23.23,0,0,0,295.08,4.12Z"/>
    <path class="cls-1" d="M288.26,0a.23.23,0,0,0,0,.45C288.52.45,288.52,0,288.26,0Z"/>
    <path class="cls-1" d="M308.73,3.3a.22.22,0,0,0,0,.44C309,3.74,309,3.3,308.73,3.3Z"/>
    <path class="cls-1" d="M319.34,14.83c-.26,0-.26.45,0,.45A.23.23,0,0,0,319.34,14.83Z"/>
    <path class="cls-1" d="M62.56,94.08a.23.23,0,0,0,0,.45C62.82,94.53,62.82,94.08,62.56,94.08Z"/>
    <path class="cls-1" d="M63.61,101.64c-.26,0-.26.45,0,.45A.23.23,0,0,0,63.61,101.64Z"/>
    <path class="cls-1" d="M55.27,109.05a.23.23,0,0,0,0,.45A.23.23,0,0,0,55.27,109.05Z"/>
    <path class="cls-1" d="M122.37,287.68c.31-.35-.18-.88-.5-.54S122.05,288,122.37,287.68Z"/>
    <path class="cls-1" d="M112.79,280c.32-.35-.17-.89-.49-.54S112.48,280.36,112.79,280Z"/>
    <path class="cls-1" d="M114.61,260.32c.31-.34-.18-.88-.5-.53S114.29,260.67,114.61,260.32Z"/>
    <path class="cls-1" d="M93.77,130.52c-.26,0-.26.45,0,.45A.23.23,0,0,0,93.77,130.52Z"/>
    <path class="cls-1" d="M144.51,93.85a.23.23,0,0,0,0,.45C144.77,94.3,144.77,93.85,144.51,93.85Z"/>
    <path class="cls-1" d="M169.43,92.08c.2-.19-.07-.52-.27-.33S169.23,92.27,169.43,92.08Z"/>
    <path class="cls-1" d="M173,148.16c.2-.19-.07-.52-.27-.33S172.84,148.35,173,148.16Z"/>
    <path class="cls-1" d="M125.68,177.47c.2-.19-.07-.52-.27-.33S125.48,177.66,125.68,177.47Z"/>
    <path class="cls-1" d="M111.78,121.43c.2-.19-.07-.53-.27-.34S111.58,121.62,111.78,121.43Z"/>
    <path class="cls-1" d="M208,122.84c.4-.38-.14-1.06-.54-.68S207.56,123.22,208,122.84Z"/>
    <path class="cls-1" d="M121.67,147.9c.4-.38-.14-1.06-.54-.68S121.27,148.28,121.67,147.9Z"/>
    <path class="cls-1" d="M146.69,168.5c.6-.57-.21-1.59-.81-1S146.09,169.07,146.69,168.5Z"/>
  </g>
</svg>
